<svg xmlns="http://www.w3.org/2000/svg" version="1.1" xmlns:xlink="http://www.w3.org/1999/xlink" xmlns:svgjs="http://svgjs.dev/svgjs" width="1500" height="1500" viewBox="0 0 1500 1500"><rect width="1500" height="1500" fill="#ffffff"></rect><g transform="matrix(0.6666666666666666,0,0,0.6666666666666666,249.78425655976673,249.78425655976673)"><svg viewBox="0 0 343 343" data-background-color="#ffffff" preserveAspectRatio="xMidYMid meet" height="1500" width="1500" xmlns="http://www.w3.org/2000/svg" xmlns:xlink="http://www.w3.org/1999/xlink"><g id="tight-bounds" transform="matrix(1,0,0,1,0.07400000000001228,0.07400000000001228)"><svg viewBox="0 0 342.8515585177538 342.8515585177538" height="342.8515585177538" width="342.8515585177538"><g><svg></svg></g><g><svg viewBox="0 0 342.8515585177538 342.8515585177538" height="342.8515585177538" width="342.8515585177538"><g><path d="M0 171.426c0-94.676 76.75-171.426 171.426-171.426 94.676 0 171.426 76.75 171.426 171.426 0 94.676-76.75 171.426-171.426 171.426-94.676 0-171.426-76.75-171.426-171.426zM171.426 336.49c91.163 0 165.064-73.902 165.064-165.064 0-91.163-73.902-165.064-165.064-165.065-91.163 0-165.064 73.902-165.065 165.065 0 91.163 73.902 165.064 165.065 165.064z" data-fill-palette-color="tertiary" fill="#003231" stroke="transparent"></path><ellipse rx="164.56874808852183" ry="164.56874808852183" cx="171.4257792588769" cy="171.4257792588769" fill="#003231" stroke="transparent" stroke-width="0" fill-opacity="1" data-fill-palette-color="tertiary"></ellipse></g><g transform="matrix(1,0,0,1,64.84655864529836,79.08615826149133)"><svg viewBox="0 0 213.15844122715708 184.67924199477113" height="184.67924199477113" width="213.15844122715708"><g><svg viewBox="0 0 213.15844122715708 184.67924199477113" height="184.67924199477113" width="213.15844122715708"><g><svg viewBox="0 0 213.15844122715708 184.67924199477113" height="184.67924199477113" width="213.15844122715708"><g transform="matrix(1,0,0,1,0,114.13918051650575)"><svg viewBox="0 0 213.15844122715708 70.54006147826539" height="70.54006147826539" width="213.15844122715708"><g id="textblocktransform"><svg viewBox="0 0 213.15844122715708 70.54006147826539" height="70.54006147826539" width="213.15844122715708" id="textblock"><g><svg viewBox="0 0 213.15844122715708 70.54006147826539" height="70.54006147826539" width="213.15844122715708"><g transform="matrix(1,0,0,1,0,0)"><svg width="213.15844122715708" viewBox="3.4999999999999996 -31.7 96.99 32.099999999999994" height="70.54006147826539" data-palette-color="#ffffff"><path d="M13.3-25.65Q16.8-25.65 18.82-23.43 20.85-21.2 20.85-17.35L20.85-17.35 20.85-0.5Q20.85 0 20.35 0L20.35 0 17.8 0Q17.3 0 17.3-0.5L17.3-0.5 17.3-16.85Q17.3-19.45 15.95-21 14.6-22.55 12.25-22.55L12.25-22.55Q9.9-22.55 8.47-20.98 7.05-19.4 7.05-16.75L7.05-16.75 7.05-0.5Q7.05 0 6.55 0L6.55 0 4 0Q3.5 0 3.5-0.5L3.5-0.5 3.5-24.8Q3.5-25.3 4-25.3L4-25.3 6.55-25.3Q7.05-25.3 7.05-24.8L7.05-24.8 7.05-22.85Q7.05-22.75 7.13-22.7 7.2-22.65 7.3-22.75L7.3-22.75Q9.25-25.65 13.3-25.65L13.3-25.65ZM35.85 0.4Q32.25 0.4 29.9-1.58 27.55-3.55 27.05-6.9L27.05-6.9Q26.75-9.45 26.75-12.7L26.75-12.7Q26.75-15.25 27.05-18.45L27.05-18.45Q27.5-21.7 29.9-23.7 32.3-25.7 35.85-25.7L35.85-25.7Q39.4-25.7 41.82-23.8 44.25-21.9 44.65-19.05L44.65-19.05 44.8-18 44.8-17.9Q44.8-17.7 44.67-17.57 44.55-17.45 44.35-17.45L44.35-17.45 41.8-17.3Q41.35-17.3 41.25-17.75L41.25-17.75Q41.25-18.2 41.2-18.35L41.2-18.35Q40.95-20.1 39.47-21.35 38-22.6 35.85-22.6L35.85-22.6Q33.65-22.6 32.22-21.25 30.8-19.9 30.55-17.75L30.55-17.75Q30.3-15.6 30.3-12.65L30.3-12.65Q30.3-9.65 30.55-7.5L30.55-7.5Q30.8-5.3 32.22-4 33.65-2.7 35.85-2.7L35.85-2.7Q38.05-2.7 39.52-3.95 41-5.2 41.2-7L41.2-7 41.25-7.4Q41.35-7.95 41.8-7.85L41.8-7.85 44.3-7.65Q44.75-7.55 44.75-7.2L44.75-7.2 44.75-7Q44.75-6.8 44.65-6.4L44.65-6.4Q44.3-3.45 41.87-1.53 39.45 0.4 35.85 0.4L35.85 0.4ZM58.55-25.7Q62.55-25.7 64.82-23.4 67.1-21.1 67.1-17.3L67.1-17.3 67.1-0.5Q67.1 0 66.6 0L66.6 0 64.05 0Q63.55 0 63.55-0.5L63.55-0.5 63.55-2.3Q63.55-2.4 63.47-2.45 63.4-2.5 63.3-2.4L63.3-2.4Q62.2-1 60.5-0.3 58.8 0.4 56.7 0.4L56.7 0.4Q53.55 0.4 51.32-1.3 49.1-3 49.1-6.85L49.1-6.85Q49.1-10.85 51.67-12.93 54.25-15 58.7-15L58.7-15 63.35-15Q63.55-15 63.55-15.2L63.55-15.2 63.55-17.1Q63.55-19.65 62.27-21.13 61-22.6 58.5-22.6L58.5-22.6Q56.55-22.6 55.25-21.63 53.95-20.65 53.7-19.05L53.7-19.05Q53.65-18.6 53.15-18.6L53.15-18.6 50.4-18.75Q50.15-18.75 50.02-18.9 49.9-19.05 49.95-19.25L49.95-19.25Q50.3-22.15 52.67-23.93 55.05-25.7 58.55-25.7L58.55-25.7ZM57.4-2.7Q59.9-2.7 61.72-4.08 63.55-5.45 63.55-7.9L63.55-7.9 63.55-11.95Q63.55-12.15 63.35-12.15L63.35-12.15 58.95-12.15Q56.1-12.15 54.4-10.83 52.7-9.5 52.7-7.05L52.7-7.05Q52.7-4.85 54-3.78 55.3-2.7 57.4-2.7L57.4-2.7ZM82.94-25.55Q84.44-25.55 85.49-24.95L85.49-24.95Q85.84-24.8 85.74-24.35L85.74-24.35 85.14-21.75Q85.09-21.25 84.54-21.45L84.54-21.45Q83.74-21.8 82.79-21.8L82.79-21.8 82.19-21.75Q79.99-21.7 78.54-19.85 77.09-18 77.09-15.35L77.09-15.35 77.09-0.5Q77.09 0 76.59 0L76.59 0 74.04 0Q73.54 0 73.54-0.5L73.54-0.5 73.54-24.8Q73.54-25.3 74.04-25.3L74.04-25.3 76.59-25.3Q77.09-25.3 77.09-24.8L77.09-24.8 77.09-21.55Q77.09-21.4 77.17-21.4 77.24-21.4 77.29-21.5L77.29-21.5Q78.14-23.4 79.57-24.48 80.99-25.55 82.94-25.55L82.94-25.55ZM100.49-23Q100.49-22.5 99.99-22.5L99.99-22.5 95.24-22.5Q95.04-22.5 95.04-22.3L95.04-22.3 95.04-7.3Q95.04-4.95 95.97-4.03 96.89-3.1 98.94-3.1L98.94-3.1 99.79-3.1Q100.29-3.1 100.29-2.6L100.29-2.6 100.29-0.5Q100.29 0 99.79 0L99.79 0 98.24 0.05Q94.99 0.05 93.29-1.28 91.59-2.6 91.59-6.2L91.59-6.2 91.59-22.3Q91.59-22.5 91.39-22.5L91.39-22.5 88.89-22.5Q88.39-22.5 88.39-23L88.39-23 88.39-24.8Q88.39-25.3 88.89-25.3L88.89-25.3 91.39-25.3Q91.59-25.3 91.59-25.5L91.59-25.5 91.59-31.2Q91.59-31.7 92.09-31.7L92.09-31.7 94.54-31.7Q95.04-31.7 95.04-31.2L95.04-31.2 95.04-25.5Q95.04-25.3 95.24-25.3L95.24-25.3 99.99-25.3Q100.49-25.3 100.49-24.8L100.49-24.8 100.49-23Z" opacity="1" transform="matrix(1,0,0,1,0,0)" fill="#ffffff" class="wordmark-text-0" data-fill-palette-color="quaternary" id="text-0"></path></svg></g></svg></g></svg></g></svg></g><g transform="matrix(1,0,0,1,52.525685897607936,0)"><svg viewBox="0 0 108.10706943194121 97.48636496296277" height="97.48636496296277" width="108.10706943194121"><g><svg xmlns="http://www.w3.org/2000/svg" xmlns:xlink="http://www.w3.org/1999/xlink" xmlns:a="http://ns.adobe.com/AdobeSVGViewerExtensions/3.0/" version="1.1" x="0" y="0" viewBox="0 0 38.126 34.38040796136655" enable-background="new -1 -3.211 40 40" xml:space="preserve" height="97.48636496296277" width="108.10706943194121" class="icon-icon-0" data-fill-palette-color="quaternary" id="icon-0"><path d="M17.425 34.307C18.336 34.307 19.064 33.98 19.68 33.361 20.299 32.743 20.628 31.979 20.628 31.106A3.13 3.13 0 0 0 19.68 28.814C19.064 28.197 18.335 27.868 17.425 27.868 16.517 27.868 15.753 28.197 15.134 28.814 14.515 29.432 14.223 30.198 14.223 31.106 14.223 31.979 14.515 32.743 15.134 33.361A3.13 3.13 0 0 0 17.425 34.307" fill="#ffffff" data-fill-palette-color="quaternary"></path><path d="M28.74 34.38C27.832 34.38 27.103 34.052 26.484 33.434A3.1 3.1 0 0 1 25.539 31.178C25.539 30.27 25.866 29.505 26.484 28.887 27.103 28.269 27.832 27.941 28.74 27.941 29.65 27.941 30.414 28.269 31.033 28.887 31.651 29.505 31.941 30.27 31.941 31.178 31.941 32.051 31.651 32.816 31.033 33.434A3.13 3.13 0 0 1 28.74 34.38" fill="#ffffff" data-fill-palette-color="quaternary"></path><polygon points="4.838,0 0,0 13.533,27.285 32.195,27.285 38.126,13.17 12.078,13.17 4.838,0 " fill="#ffffff" data-fill-palette-color="quaternary"></polygon></svg></g></svg></g><g></g></svg></g></svg></g></svg></g></svg></g><defs></defs></svg><rect width="342.8515585177538" height="342.8515585177538" fill="none" stroke="none" visibility="hidden"></rect></g></svg></g></svg>